<mxfile><diagram id="_YWpFm4NmVe6s--rPzkd" name="Page-1"><mxGraphModel dx="1792" dy="676" grid="1" gridSize="10" guides="1" tooltips="1" connect="1" arrows="1" fold="1" page="1" pageScale="1" pageWidth="827" pageHeight="1169" background="none" math="0" shadow="0"><root><mxCell id="0"/><mxCell id="1" parent="0"/><mxCell id="2" value="Welcome Screen" style="swimlane;childLayout=stackLayout;horizontal=1;startSize=30;horizontalStack=0;rounded=1;fontSize=14;fontStyle=0;strokeWidth=2;resizeParent=0;resizeLast=1;shadow=0;dashed=0;align=center;" parent="1" vertex="1"><mxGeometry x="300" y="120" width="170" height="90" as="geometry"/></mxCell><mxCell id="3" value="Hide all screens&#10;Show Welcome screen&#10;&#10;" style="align=center;strokeColor=none;fillColor=none;spacingLeft=4;fontSize=12;verticalAlign=top;resizable=0;rotatable=0;part=1;rounded=0;" parent="2" vertex="1"><mxGeometry y="30" width="170" height="60" as="geometry"/></mxCell><mxCell id="5" value="Start" style="swimlane;childLayout=stackLayout;horizontal=1;startSize=30;horizontalStack=0;rounded=1;fontSize=14;fontStyle=0;strokeWidth=2;resizeParent=0;resizeLast=1;shadow=0;dashed=0;align=center;" vertex="1" parent="1"><mxGeometry x="300" y="10" width="170" height="90" as="geometry"><mxRectangle x="330" y="280" width="70" height="30" as="alternateBounds"/></mxGeometry></mxCell><mxCell id="6" value="lives = 3;&#10;time = 61;&#10;points = 0;&#10;&#10;" style="align=center;strokeColor=none;fillColor=none;spacingLeft=4;fontSize=12;verticalAlign=top;resizable=0;rotatable=0;part=1;rounded=0;" vertex="1" parent="5"><mxGeometry y="30" width="170" height="60" as="geometry"/></mxCell><mxCell id="8" value="Instructions" style="swimlane;childLayout=stackLayout;horizontal=1;startSize=30;horizontalStack=0;rounded=1;fontSize=14;fontStyle=0;strokeWidth=2;resizeParent=0;resizeLast=1;shadow=0;dashed=0;align=center;" vertex="1" parent="1"><mxGeometry y="125" width="170" height="80" as="geometry"/></mxCell><mxCell id="9" value="Hide all screens&#10;Show Instructions screen&#10;" style="align=center;strokeColor=none;fillColor=none;spacingLeft=4;fontSize=12;verticalAlign=top;resizable=0;rotatable=0;part=1;rounded=0;" vertex="1" parent="8"><mxGeometry y="30" width="170" height="50" as="geometry"/></mxCell><mxCell id="10" value="Start Game" style="swimlane;childLayout=stackLayout;horizontal=1;startSize=30;horizontalStack=0;rounded=1;fontSize=14;fontStyle=0;strokeWidth=2;resizeParent=0;resizeLast=1;shadow=0;dashed=0;align=center;" vertex="1" parent="1"><mxGeometry x="300" y="270" width="170" height="160" as="geometry"/></mxCell><mxCell id="11" value="Hide all screens&#10;Show game screen&#10;Play music&#10;Show time&#10;Show points&#10;Show lives&#10;Good objects fly&#10;Bad objects fall&#10;" style="align=center;strokeColor=none;fillColor=none;spacingLeft=4;fontSize=12;verticalAlign=top;resizable=0;rotatable=0;part=1;rounded=0;" vertex="1" parent="10"><mxGeometry y="30" width="170" height="130" as="geometry"/></mxCell><mxCell id="12" value="Balloon Hit" style="swimlane;childLayout=stackLayout;horizontal=1;startSize=30;horizontalStack=0;rounded=1;fontSize=14;fontStyle=0;strokeWidth=2;resizeParent=0;resizeLast=1;shadow=0;dashed=0;align=center;flipH=1;" vertex="1" parent="1"><mxGeometry x="130" y="500" width="170" height="100" as="geometry"/></mxCell><mxCell id="13" value="Pause animation&#10;Play sound&#10;Zoom out&#10;Add point&#10;&#10;" style="align=center;strokeColor=none;fillColor=none;spacingLeft=4;fontSize=12;verticalAlign=top;resizable=0;rotatable=0;part=1;rounded=0;" vertex="1" parent="12"><mxGeometry y="30" width="170" height="70" as="geometry"/></mxCell><mxCell id="14" value="Asteroid Hit" style="swimlane;childLayout=stackLayout;horizontal=1;startSize=30;horizontalStack=0;rounded=1;fontSize=14;fontStyle=0;strokeWidth=2;resizeParent=0;resizeLast=1;shadow=0;dashed=0;align=center;" vertex="1" parent="1"><mxGeometry x="470" y="495" width="170" height="100" as="geometry"/></mxCell><mxCell id="15" value="Pause animation&#10;Play sound&#10;Zoom out&#10;-1 life" style="align=center;strokeColor=none;fillColor=none;spacingLeft=4;fontSize=12;verticalAlign=top;resizable=0;rotatable=0;part=1;rounded=0;" vertex="1" parent="14"><mxGeometry y="30" width="170" height="70" as="geometry"/></mxCell><mxCell id="16" value="Restart Balloon" style="swimlane;childLayout=stackLayout;horizontal=1;startSize=30;horizontalStack=0;rounded=1;fontSize=14;fontStyle=0;strokeWidth=2;resizeParent=0;resizeLast=1;shadow=0;dashed=0;align=center;" vertex="1" parent="1"><mxGeometry x="-100" y="505" width="170" height="90" as="geometry"/></mxCell><mxCell id="17" value="Restart at random position&#10;Clear all classes&#10;Remove event listeners" style="align=center;strokeColor=none;fillColor=none;spacingLeft=4;fontSize=12;verticalAlign=top;resizable=0;rotatable=0;part=1;rounded=0;" vertex="1" parent="16"><mxGeometry y="30" width="170" height="60" as="geometry"/></mxCell><mxCell id="18" value="Restart Asteroid" style="swimlane;childLayout=stackLayout;horizontal=1;startSize=30;horizontalStack=0;rounded=1;fontSize=14;fontStyle=0;strokeWidth=2;resizeParent=0;resizeLast=1;shadow=0;dashed=0;align=center;" vertex="1" parent="1"><mxGeometry x="700" y="500" width="170" height="90" as="geometry"/></mxCell><mxCell id="19" value="Restart at random position&#10;Clear all classes&#10;Remove event listeners" style="align=center;strokeColor=none;fillColor=none;spacingLeft=4;fontSize=12;verticalAlign=top;resizable=0;rotatable=0;part=1;rounded=0;" vertex="1" parent="18"><mxGeometry y="30" width="170" height="60" as="geometry"/></mxCell><mxCell id="20" value="Show Time" style="swimlane;childLayout=stackLayout;horizontal=1;startSize=30;horizontalStack=0;rounded=1;fontSize=14;fontStyle=0;strokeWidth=2;resizeParent=0;resizeLast=1;shadow=0;dashed=0;align=center;" vertex="1" parent="1"><mxGeometry x="575" y="125" width="170" height="70" as="geometry"/></mxCell><mxCell id="21" value="Print time left&#10;Count Time" style="align=center;strokeColor=none;fillColor=none;spacingLeft=4;fontSize=12;verticalAlign=top;resizable=0;rotatable=0;part=1;rounded=0;" vertex="1" parent="20"><mxGeometry y="30" width="170" height="40" as="geometry"/></mxCell><mxCell id="26" value="lives &gt; 0" style="rhombus;" vertex="1" parent="1"><mxGeometry x="505" y="620" width="100" height="80" as="geometry"/></mxCell><mxCell id="30" value="Show points" style="swimlane;childLayout=stackLayout;horizontal=1;startSize=30;horizontalStack=0;rounded=1;fontSize=14;fontStyle=0;strokeWidth=2;resizeParent=0;resizeLast=1;shadow=0;dashed=0;align=center;" vertex="1" parent="1"><mxGeometry x="130" y="620" width="170" height="60" as="geometry"/></mxCell><mxCell id="31" value="Print current points" style="align=center;strokeColor=none;fillColor=none;spacingLeft=4;fontSize=12;verticalAlign=top;resizable=0;rotatable=0;part=1;rounded=0;" vertex="1" parent="30"><mxGeometry y="30" width="170" height="30" as="geometry"/></mxCell><mxCell id="36" value="Game Over" style="swimlane;childLayout=stackLayout;horizontal=1;startSize=30;horizontalStack=0;rounded=1;fontSize=14;fontStyle=0;strokeWidth=2;resizeParent=0;resizeLast=1;shadow=0;dashed=0;align=center;" vertex="1" parent="1"><mxGeometry x="300" y="800" width="170" height="90" as="geometry"/></mxCell><mxCell id="37" value="Pause background music&#10;Remove all classes&#10;Remove all event listeners&#10;" style="align=center;strokeColor=none;fillColor=none;spacingLeft=4;fontSize=12;verticalAlign=top;resizable=0;rotatable=0;part=1;rounded=0;" vertex="1" parent="36"><mxGeometry y="30" width="170" height="60" as="geometry"/></mxCell><mxCell id="38" value="if points &gt; 29 &amp;&amp; lives&gt; 0" style="rhombus;verticalAlign=middle;fontSize=10;" vertex="1" parent="1"><mxGeometry x="317.5" y="915" width="135" height="120" as="geometry"/></mxCell><mxCell id="39" value="Losing" style="swimlane;childLayout=stackLayout;horizontal=1;startSize=30;horizontalStack=0;rounded=1;fontSize=14;fontStyle=0;strokeWidth=2;resizeParent=0;resizeLast=1;shadow=0;dashed=0;align=center;" vertex="1" parent="1"><mxGeometry x="575" y="930" width="170" height="90" as="geometry"/></mxCell><mxCell id="40" value="Hide all screens&#10;Show losing screen&#10;Play losing sound&#10;&#10;" style="align=center;strokeColor=none;fillColor=none;spacingLeft=4;fontSize=12;verticalAlign=top;resizable=0;rotatable=0;part=1;rounded=0;" vertex="1" parent="39"><mxGeometry y="30" width="170" height="60" as="geometry"/></mxCell><mxCell id="41" value="Winning" style="swimlane;childLayout=stackLayout;horizontal=1;startSize=30;horizontalStack=0;rounded=1;fontSize=14;fontStyle=0;strokeWidth=2;resizeParent=0;resizeLast=1;shadow=0;dashed=0;align=center;" vertex="1" parent="1"><mxGeometry x="60" y="930" width="170" height="90" as="geometry"/></mxCell><mxCell id="42" value="Hide all screens&#10;Show winning screen&#10;Play winning sound&#10;&#10;" style="align=center;strokeColor=none;fillColor=none;spacingLeft=4;fontSize=12;verticalAlign=top;resizable=0;rotatable=0;part=1;rounded=0;" vertex="1" parent="41"><mxGeometry y="30" width="170" height="60" as="geometry"/></mxCell><mxCell id="62" value="" style="edgeStyle=none;html=1;fontSize=10;entryX=0.01;entryY=0.08;entryDx=0;entryDy=0;entryPerimeter=0;" edge="1" parent="1" target="11"><mxGeometry relative="1" as="geometry"><mxPoint x="170" y="310" as="sourcePoint"/><mxPoint x="250" y="320" as="targetPoint"/></mxGeometry></mxCell><mxCell id="43" value="Hide all screens" style="swimlane;childLayout=stackLayout;horizontal=1;startSize=30;horizontalStack=0;rounded=1;fontSize=14;fontStyle=0;strokeWidth=2;resizeParent=0;resizeLast=1;shadow=0;dashed=0;align=center;" vertex="1" parent="1"><mxGeometry y="230" width="170" height="100" as="geometry"/></mxCell><mxCell id="44" value="Hide Welcome screen&#10;Hide Game screen&#10;Hide Losing screen&#10;Hide Winning screen" style="align=center;strokeColor=none;fillColor=none;spacingLeft=4;fontSize=12;verticalAlign=top;resizable=0;rotatable=0;part=1;rounded=0;" vertex="1" parent="43"><mxGeometry y="30" width="170" height="70" as="geometry"/></mxCell><mxCell id="51" value="" style="edgeStyle=none;html=1;fontSize=10;" edge="1" parent="1" source="6"><mxGeometry relative="1" as="geometry"><mxPoint x="385" y="120" as="targetPoint"/></mxGeometry></mxCell><mxCell id="52" value="" style="edgeStyle=none;html=1;fontSize=10;startArrow=none;" edge="1" parent="1" source="53"><mxGeometry relative="1" as="geometry"><mxPoint x="170" y="185" as="targetPoint"/></mxGeometry></mxCell><mxCell id="53" value="User clicks instructions&lt;br&gt;button" style="text;html=1;strokeColor=none;fillColor=none;align=center;verticalAlign=middle;whiteSpace=wrap;rounded=0;fontSize=10;" vertex="1" parent="1"><mxGeometry x="205" y="170" width="60" height="30" as="geometry"/></mxCell><mxCell id="54" value="" style="edgeStyle=none;html=1;fontSize=10;endArrow=none;" edge="1" parent="1" target="53"><mxGeometry relative="1" as="geometry"><mxPoint x="300" y="185" as="sourcePoint"/><mxPoint x="170" y="180" as="targetPoint"/></mxGeometry></mxCell><mxCell id="55" value="" style="edgeStyle=none;html=1;fontSize=10;entryX=0.5;entryY=0;entryDx=0;entryDy=0;startArrow=none;" edge="1" parent="1" source="56" target="10"><mxGeometry relative="1" as="geometry"/></mxCell><mxCell id="56" value="User clicks Play" style="text;html=1;strokeColor=none;fillColor=none;align=center;verticalAlign=middle;whiteSpace=wrap;rounded=0;fontSize=10;" vertex="1" parent="1"><mxGeometry x="355" y="220" width="60" height="30" as="geometry"/></mxCell><mxCell id="57" value="" style="edgeStyle=none;html=1;fontSize=10;entryX=0.5;entryY=0;entryDx=0;entryDy=0;endArrow=none;" edge="1" parent="1" source="3" target="56"><mxGeometry relative="1" as="geometry"><mxPoint x="385" y="210" as="sourcePoint"/><mxPoint x="385" y="270" as="targetPoint"/></mxGeometry></mxCell><mxCell id="64" value="" style="endArrow=classic;html=1;fontSize=10;" edge="1" parent="1"><mxGeometry width="50" height="50" relative="1" as="geometry"><mxPoint x="170" y="277.5" as="sourcePoint"/><mxPoint x="324" y="210" as="targetPoint"/><Array as="points"><mxPoint x="280" y="277.5"/><mxPoint x="280" y="240"/><mxPoint x="324" y="240"/></Array></mxGeometry></mxCell><mxCell id="69" value="" style="shape=collate;whiteSpace=wrap;html=1;fontSize=10;" vertex="1" parent="1"><mxGeometry x="640" y="270" width="70" height="80" as="geometry"/></mxCell><mxCell id="71" value="" style="endArrow=classic;html=1;fontSize=10;entryX=0.5;entryY=0;entryDx=0;entryDy=0;startArrow=none;" edge="1" parent="1" target="12"><mxGeometry width="50" height="50" relative="1" as="geometry"><mxPoint x="250" y="470" as="sourcePoint"/><mxPoint x="160" y="490" as="targetPoint"/><Array as="points"><mxPoint x="215" y="470"/></Array></mxGeometry></mxCell><mxCell id="75" value="if points &gt; 29 " style="rhombus;fontSize=12;" vertex="1" parent="1"><mxGeometry x="165" y="700" width="100" height="100" as="geometry"/></mxCell><mxCell id="78" value="User clicks balloon" style="text;html=1;strokeColor=none;fillColor=none;align=center;verticalAlign=middle;whiteSpace=wrap;rounded=0;fontSize=12;" vertex="1" parent="1"><mxGeometry x="237.5" y="450" width="80" height="30" as="geometry"/></mxCell><mxCell id="80" value="" style="endArrow=none;html=1;fontSize=10;exitX=0.25;exitY=1;exitDx=0;exitDy=0;" edge="1" parent="1" source="11"><mxGeometry width="50" height="50" relative="1" as="geometry"><mxPoint x="342.5" y="430" as="sourcePoint"/><mxPoint x="320" y="470" as="targetPoint"/><Array as="points"><mxPoint x="343" y="470"/></Array></mxGeometry></mxCell><mxCell id="81" value="User clicks asteroid" style="text;html=1;strokeColor=none;fillColor=none;align=center;verticalAlign=middle;whiteSpace=wrap;rounded=0;fontSize=12;" vertex="1" parent="1"><mxGeometry x="460" y="450" width="80" height="30" as="geometry"/></mxCell><mxCell id="88" value="" style="endArrow=classic;html=1;fontSize=12;exitX=0.75;exitY=1;exitDx=0;exitDy=0;entryX=0.5;entryY=0;entryDx=0;entryDy=0;" edge="1" parent="1" source="11" target="14"><mxGeometry width="50" height="50" relative="1" as="geometry"><mxPoint x="450" y="450" as="sourcePoint"/><mxPoint x="500" y="400" as="targetPoint"/><Array as="points"><mxPoint x="428" y="470"/><mxPoint x="555" y="470"/></Array></mxGeometry></mxCell><mxCell id="90" value="" style="edgeStyle=none;html=1;fontSize=12;" edge="1" parent="1" source="13"><mxGeometry relative="1" as="geometry"><mxPoint x="215" y="620" as="targetPoint"/></mxGeometry></mxCell><mxCell id="91" value="" style="endArrow=classic;html=1;fontSize=12;exitX=0.5;exitY=1;exitDx=0;exitDy=0;entryX=0.5;entryY=0;entryDx=0;entryDy=0;" edge="1" parent="1" source="31" target="75"><mxGeometry width="50" height="50" relative="1" as="geometry"><mxPoint x="450" y="660" as="sourcePoint"/><mxPoint x="500" y="610" as="targetPoint"/></mxGeometry></mxCell><mxCell id="92" value="" style="endArrow=classic;html=1;fontSize=12;exitX=0.5;exitY=1;exitDx=0;exitDy=0;entryX=0.5;entryY=0;entryDx=0;entryDy=0;startArrow=none;" edge="1" parent="1" source="95" target="41"><mxGeometry width="50" height="50" relative="1" as="geometry"><mxPoint x="370" y="660" as="sourcePoint"/><mxPoint x="420" y="610" as="targetPoint"/><Array as="points"><mxPoint x="215" y="850"/><mxPoint x="145" y="850"/></Array></mxGeometry></mxCell><mxCell id="93" value="" style="endArrow=classic;html=1;fontSize=12;exitX=0;exitY=0.5;exitDx=0;exitDy=0;entryX=0.5;entryY=1;entryDx=0;entryDy=0;" edge="1" parent="1" source="75" target="17"><mxGeometry width="50" height="50" relative="1" as="geometry"><mxPoint x="370" y="660" as="sourcePoint"/><mxPoint x="420" y="610" as="targetPoint"/><Array as="points"><mxPoint x="-15" y="750"/></Array></mxGeometry></mxCell><mxCell id="94" value="" style="endArrow=classic;html=1;fontSize=12;exitX=0.5;exitY=0;exitDx=0;exitDy=0;entryX=0;entryY=0.75;entryDx=0;entryDy=0;" edge="1" parent="1" source="16" target="11"><mxGeometry width="50" height="50" relative="1" as="geometry"><mxPoint x="370" y="660" as="sourcePoint"/><mxPoint x="420" y="610" as="targetPoint"/><Array as="points"><mxPoint x="-15" y="398"/></Array></mxGeometry></mxCell><mxCell id="95" value="Yes" style="text;html=1;strokeColor=none;fillColor=none;align=center;verticalAlign=middle;whiteSpace=wrap;rounded=0;fontSize=12;" vertex="1" parent="1"><mxGeometry x="185" y="810" width="60" height="30" as="geometry"/></mxCell><mxCell id="96" value="" style="endArrow=none;html=1;fontSize=12;exitX=0.5;exitY=1;exitDx=0;exitDy=0;entryX=0.5;entryY=0;entryDx=0;entryDy=0;" edge="1" parent="1" source="75" target="95"><mxGeometry width="50" height="50" relative="1" as="geometry"><mxPoint x="215" y="800" as="sourcePoint"/><mxPoint x="145" y="915" as="targetPoint"/><Array as="points"/></mxGeometry></mxCell><mxCell id="97" value="No" style="text;html=1;strokeColor=none;fillColor=none;align=center;verticalAlign=middle;whiteSpace=wrap;rounded=0;fontSize=12;" vertex="1" parent="1"><mxGeometry x="110" y="750" width="60" height="30" as="geometry"/></mxCell><mxCell id="101" value="" style="endArrow=classic;html=1;fontSize=12;exitX=0.5;exitY=1;exitDx=0;exitDy=0;entryX=0.5;entryY=0;entryDx=0;entryDy=0;" edge="1" parent="1" source="15" target="26"><mxGeometry width="50" height="50" relative="1" as="geometry"><mxPoint x="370" y="710" as="sourcePoint"/><mxPoint x="420" y="660" as="targetPoint"/></mxGeometry></mxCell><mxCell id="102" value="" style="endArrow=classic;html=1;fontSize=12;exitX=0.5;exitY=1;exitDx=0;exitDy=0;entryX=0.5;entryY=0;entryDx=0;entryDy=0;" edge="1" parent="1" source="26" target="36"><mxGeometry width="50" height="50" relative="1" as="geometry"><mxPoint x="370" y="710" as="sourcePoint"/><mxPoint x="420" y="660" as="targetPoint"/><Array as="points"><mxPoint x="555" y="720"/><mxPoint x="385" y="720"/></Array></mxGeometry></mxCell><mxCell id="103" value="" style="endArrow=classic;html=1;fontSize=12;exitX=1;exitY=0.5;exitDx=0;exitDy=0;entryX=0.5;entryY=1;entryDx=0;entryDy=0;" edge="1" parent="1" source="26" target="19"><mxGeometry width="50" height="50" relative="1" as="geometry"><mxPoint x="370" y="710" as="sourcePoint"/><mxPoint x="420" y="660" as="targetPoint"/><Array as="points"><mxPoint x="785" y="660"/></Array></mxGeometry></mxCell><mxCell id="104" value="" style="endArrow=classic;html=1;fontSize=12;exitX=0.5;exitY=1;exitDx=0;exitDy=0;entryX=0.5;entryY=0;entryDx=0;entryDy=0;" edge="1" parent="1" source="37" target="38"><mxGeometry width="50" height="50" relative="1" as="geometry"><mxPoint x="360" y="880" as="sourcePoint"/><mxPoint x="410" y="830" as="targetPoint"/></mxGeometry></mxCell><mxCell id="105" value="" style="endArrow=classic;html=1;fontSize=12;exitX=0;exitY=0.5;exitDx=0;exitDy=0;entryX=1;entryY=0.25;entryDx=0;entryDy=0;startArrow=none;" edge="1" parent="1" source="107" target="42"><mxGeometry width="50" height="50" relative="1" as="geometry"><mxPoint x="360" y="880" as="sourcePoint"/><mxPoint x="410" y="830" as="targetPoint"/></mxGeometry></mxCell><mxCell id="106" value="" style="endArrow=classic;html=1;fontSize=12;exitX=1;exitY=0.5;exitDx=0;exitDy=0;entryX=0;entryY=0.5;entryDx=0;entryDy=0;startArrow=none;" edge="1" parent="1" source="109" target="39"><mxGeometry width="50" height="50" relative="1" as="geometry"><mxPoint x="360" y="880" as="sourcePoint"/><mxPoint x="410" y="830" as="targetPoint"/></mxGeometry></mxCell><mxCell id="107" value="Yes" style="text;html=1;strokeColor=none;fillColor=none;align=center;verticalAlign=middle;whiteSpace=wrap;rounded=0;fontSize=12;" vertex="1" parent="1"><mxGeometry x="265" y="960" width="60" height="30" as="geometry"/></mxCell><mxCell id="109" value="No" style="text;html=1;strokeColor=none;fillColor=none;align=center;verticalAlign=middle;whiteSpace=wrap;rounded=0;fontSize=12;" vertex="1" parent="1"><mxGeometry x="470" y="960" width="60" height="30" as="geometry"/></mxCell><mxCell id="110" value="" style="endArrow=none;html=1;fontSize=12;exitX=1;exitY=0.5;exitDx=0;exitDy=0;entryX=0;entryY=0.5;entryDx=0;entryDy=0;" edge="1" parent="1" source="38" target="109"><mxGeometry width="50" height="50" relative="1" as="geometry"><mxPoint x="452.5" y="975" as="sourcePoint"/><mxPoint x="575" y="975" as="targetPoint"/></mxGeometry></mxCell><mxCell id="111" value="" style="endArrow=classic;html=1;fontSize=12;exitX=0.5;exitY=0;exitDx=0;exitDy=0;entryX=1;entryY=0.75;entryDx=0;entryDy=0;" edge="1" parent="1" source="18" target="11"><mxGeometry width="50" height="50" relative="1" as="geometry"><mxPoint x="360" y="600" as="sourcePoint"/><mxPoint x="410" y="550" as="targetPoint"/><Array as="points"><mxPoint x="785" y="398"/></Array></mxGeometry></mxCell><mxCell id="113" value="" style="endArrow=classic;html=1;fontSize=12;exitX=0;exitY=0.75;exitDx=0;exitDy=0;entryX=0;entryY=0.5;entryDx=0;entryDy=0;" edge="1" parent="1" source="44" target="41"><mxGeometry width="50" height="50" relative="1" as="geometry"><mxPoint x="300" y="410" as="sourcePoint"/><mxPoint x="-110" y="370" as="targetPoint"/><Array as="points"><mxPoint x="-150" y="313"/><mxPoint x="-150" y="975"/></Array></mxGeometry></mxCell><mxCell id="115" value="" style="endArrow=classic;html=1;fontSize=12;exitX=0;exitY=0.5;exitDx=0;exitDy=0;entryX=0.5;entryY=1;entryDx=0;entryDy=0;" edge="1" parent="1" source="44" target="40"><mxGeometry width="50" height="50" relative="1" as="geometry"><mxPoint x="300" y="430" as="sourcePoint"/><mxPoint x="-200" y="660" as="targetPoint"/><Array as="points"><mxPoint x="-200" y="295"/><mxPoint x="-200" y="1050"/><mxPoint x="660" y="1050"/></Array></mxGeometry></mxCell><mxCell id="116" value="" style="endArrow=classic;html=1;fontSize=12;exitX=0;exitY=0.5;exitDx=0;exitDy=0;entryX=0;entryY=0.5;entryDx=0;entryDy=0;" edge="1" parent="1" source="8" target="11"><mxGeometry width="50" height="50" relative="1" as="geometry"><mxPoint x="290" y="420" as="sourcePoint"/><mxPoint x="340" y="370" as="targetPoint"/><Array as="points"><mxPoint x="-90" y="165"/><mxPoint x="-90" y="365"/></Array></mxGeometry></mxCell><mxCell id="117" value="User clicks Play" style="text;html=1;strokeColor=none;fillColor=none;align=center;verticalAlign=middle;whiteSpace=wrap;rounded=0;fontSize=12;" vertex="1" parent="1"><mxGeometry x="-80" y="175" width="60" height="30" as="geometry"/></mxCell><mxCell id="119" value="" style="endArrow=classic;html=1;fontSize=12;entryX=0;entryY=0;entryDx=0;entryDy=0;" edge="1" parent="1" target="3"><mxGeometry width="50" height="50" relative="1" as="geometry"><mxPoint x="170" y="150" as="sourcePoint"/><mxPoint x="290" y="150" as="targetPoint"/></mxGeometry></mxCell><mxCell id="120" value="User clicks Home&amp;nbsp;button" style="text;html=1;strokeColor=none;fillColor=none;align=center;verticalAlign=middle;whiteSpace=wrap;rounded=0;fontSize=10;" vertex="1" parent="1"><mxGeometry x="205" y="120" width="60" height="30" as="geometry"/></mxCell><mxCell id="121" value="No" style="text;html=1;strokeColor=none;fillColor=none;align=center;verticalAlign=middle;whiteSpace=wrap;rounded=0;fontSize=12;" vertex="1" parent="1"><mxGeometry x="470" y="720" width="60" height="30" as="geometry"/></mxCell><mxCell id="122" value="Yes" style="text;html=1;strokeColor=none;fillColor=none;align=center;verticalAlign=middle;whiteSpace=wrap;rounded=0;fontSize=12;" vertex="1" parent="1"><mxGeometry x="605" y="660" width="60" height="30" as="geometry"/></mxCell><mxCell id="123" value="" style="endArrow=classic;html=1;fontSize=12;entryX=0.5;entryY=0;entryDx=0;entryDy=0;exitX=0.584;exitY=1.013;exitDx=0;exitDy=0;exitPerimeter=0;" edge="1" parent="1" source="21" target="69"><mxGeometry width="50" height="50" relative="1" as="geometry"><mxPoint x="675" y="200" as="sourcePoint"/><mxPoint x="510" y="440" as="targetPoint"/></mxGeometry></mxCell><mxCell id="124" value="" style="endArrow=classic;html=1;fontSize=12;exitX=0.5;exitY=1;exitDx=0;exitDy=0;entryX=1;entryY=0.25;entryDx=0;entryDy=0;" edge="1" parent="1" source="69" target="37"><mxGeometry width="50" height="50" relative="1" as="geometry"><mxPoint x="460" y="640" as="sourcePoint"/><mxPoint x="510" y="590" as="targetPoint"/><Array as="points"><mxPoint x="675" y="845"/></Array></mxGeometry></mxCell><mxCell id="125" value="" style="endArrow=classic;html=1;fontSize=12;entryX=1;entryY=0.5;entryDx=0;entryDy=0;" edge="1" parent="1" target="11"><mxGeometry width="50" height="50" relative="1" as="geometry"><mxPoint x="660" y="350" as="sourcePoint"/><mxPoint x="510" y="390" as="targetPoint"/><Array as="points"><mxPoint x="660" y="365"/></Array></mxGeometry></mxCell><mxCell id="126" value="" style="endArrow=classic;html=1;fontSize=12;entryX=0;entryY=0.25;entryDx=0;entryDy=0;exitX=1;exitY=0;exitDx=0;exitDy=0;" edge="1" parent="1" source="11" target="21"><mxGeometry width="50" height="50" relative="1" as="geometry"><mxPoint x="460" y="440" as="sourcePoint"/><mxPoint x="510" y="390" as="targetPoint"/><Array as="points"><mxPoint x="530" y="300"/><mxPoint x="530" y="165"/></Array></mxGeometry></mxCell><mxCell id="127" value="Yes" style="text;html=1;strokeColor=none;fillColor=none;align=center;verticalAlign=middle;whiteSpace=wrap;rounded=0;fontSize=12;" vertex="1" parent="1"><mxGeometry x="580" y="330" width="60" height="30" as="geometry"/></mxCell><mxCell id="128" value="No" style="text;html=1;strokeColor=none;fillColor=none;align=center;verticalAlign=middle;whiteSpace=wrap;rounded=0;fontSize=12;" vertex="1" parent="1"><mxGeometry x="665" y="360" width="60" height="30" as="geometry"/></mxCell><mxCell id="130" value="Time &amp;gt; 0" style="text;html=1;strokeColor=none;fillColor=none;align=center;verticalAlign=middle;whiteSpace=wrap;rounded=0;fontSize=12;" vertex="1" parent="1"><mxGeometry x="685" y="295" width="60" height="30" as="geometry"/></mxCell></root></mxGraphModel></diagram></mxfile>